<svg width="98" height="50" viewBox="0 0 98 50" fill="none" xmlns="http://www.w3.org/2000/svg">
<path d="M97.0002 1C81.4033 2.29974 80.4374 33.4164 65.0002 37C52.2704 39.9551 45.8244 23.1804 33.0002 25C19.0905 26.9737 14.6394 44.4536 1.00024 49H97.0002V1Z" fill="#ECFDF3"/>
<path d="M97.0002 1C81.4033 2.29974 80.4374 33.4164 65.0002 37C52.2704 39.9551 45.8244 23.1804 33.0002 25C19.0905 26.9737 14.6394 44.4536 1.00024 49H97.0002V1Z" fill="url(#paint0_linear_1513_1173)"/>
<path d="M1.00024 49C14.6394 44.4536 19.0905 26.9737 33.0002 25C45.8244 23.1804 52.2704 39.9551 65.0002 37C80.4374 33.4164 81.4033 2.29974 97.0002 1" stroke="#12B76A" stroke-width="2" stroke-linecap="round" stroke-linejoin="round"/>
<defs>
<linearGradient id="paint0_linear_1513_1173" x1="49.0002" y1="1" x2="49.0002" y2="49" gradientUnits="userSpaceOnUse">
<stop offset="0.641167" stop-color="white" stop-opacity="0"/>
<stop offset="1" stop-color="white"/>
</linearGradient>
</defs>
</svg>
